<svg width="48" height="48" viewBox="0 0 48 48" xmlns="http://www.w3.org/2000/svg"><g id="logo-white" stroke="none" stroke-width="1" fill="none" fill-rule="evenodd"><g id="Group" fill="#233e99" fill-rule="nonzero"><g id="Common/Logo"><path d="M25.184 26.18L8.146 11.05a5.484 5.484 0 00-1.851-1.212 5.065 5.065 0 00-1.597-.268 5.498 5.498 0 00-1.766.287 3.98 3.98 0 00-1.497.906 4.48 4.48 0 00-1.038 1.602 6.295 6.295 0 00-.395 2.344v23.23h7.811V21.37l17.038 15.129c.51.528 1.126.942 1.807 1.212.53.177 1.083.267 1.64.268a5.69 5.69 0 001.789-.288 3.81 3.81 0 001.515-.926 4.7 4.7 0 001.039-1.624 6.296 6.296 0 00.395-2.342V10.022h-7.852v16.157zM37.82 10.021L34.84 17.3h4.56v21.13H48V10.02H37.82z" id="logo"/></g></g></g></svg>